v 0.483834 -0.128370 -0.283091
v 0.487081 -0.128370 -0.277466
v 0.487081 -0.128370 0.277466
v 0.483834 -0.128370 0.283091
v 0.003248 -0.128370 0.560558
v -0.003248 -0.128370 0.560558
v -0.483833 -0.128370 0.283091
v -0.487081 -0.128370 0.277466
v -0.487081 -0.128370 -0.277466
v -0.483833 -0.128370 -0.283091
v -0.003248 -0.128370 -0.560558
v 0.003248 -0.128370 -0.560558
v -0.003522 -0.091592 -0.556069
v 0.003522 -0.091592 -0.556069
v 0.003248 -0.095342 -0.560558
v -0.003248 -0.095342 -0.560558
v -0.483331 -0.091592 -0.274984
v -0.479809 -0.091592 -0.281085
v -0.483833 -0.095342 -0.283091
v -0.487081 -0.095342 -0.277466
v -0.483331 -0.091592 0.274984
v -0.487081 -0.095342 0.277466
v -0.483833 -0.095342 0.283091
v -0.479809 -0.091592 0.281085
v -0.003522 -0.091592 0.556069
v -0.003248 -0.095342 0.560558
v 0.003248 -0.095342 0.560558
v 0.003522 -0.091592 0.556069
v 0.483331 -0.091592 0.274984
v 0.479809 -0.091592 0.281085
v 0.483834 -0.095342 0.283091
v 0.487081 -0.095342 0.277466
v 0.479809 -0.091592 -0.281085
v 0.483331 -0.091592 -0.274984
v 0.487081 -0.095342 -0.277466
v 0.483834 -0.095342 -0.283091
v -0.426236 -0.003462 -0.250136
v -0.429742 -0.003462 -0.244063
v -0.424550 0.000000 -0.245114
v 0.003506 -0.003462 -0.494199
v -0.003506 -0.003462 -0.494199
v 0.000000 0.000000 -0.490228
v -0.426236 -0.003462 0.250136
v -0.424550 0.000000 0.245114
v -0.429742 -0.003462 0.244063
v 0.003506 -0.003462 0.494199
v 0.000000 0.000000 0.490228
v -0.003506 -0.003462 0.494199
v 0.426236 -0.003462 0.250136
v 0.429742 -0.003462 0.244063
v 0.424550 0.000000 0.245114
v 0.426236 -0.003462 -0.250136
v 0.424550 0.000000 -0.245114
v 0.429742 -0.003462 -0.244063
v -0.003513 -0.091592 0.536574
v 0.003513 -0.091592 0.536574
v -0.466444 -0.091592 -0.265245
v -0.462931 -0.091592 -0.271330
v 0.003513 -0.091592 -0.536574
v -0.003513 -0.091592 -0.536574
v 0.466444 -0.091592 -0.265245
v 0.462931 -0.091592 -0.271330
v -0.466444 -0.091592 0.265245
v -0.462931 -0.091592 0.271330
v 0.462931 -0.091592 0.271330
v 0.466444 -0.091592 0.265245
vn 0.0000 1.0000 -0.0000
vn 0.0899 0.9832 -0.1589
vn 0.3708 0.7629 0.5297
vn 0.4644 0.3851 0.7975
vn 0.4597 0.4152 0.7850
vn -0.4542 0.3861 -0.8029
vn -0.4601 0.4161 -0.7843
vn -0.4494 0.4158 -0.7907
vn 0.4644 0.3852 -0.7975
vn 0.4492 0.4161 -0.7906
vn 0.4597 0.4152 -0.7850
vn -0.4644 0.3852 0.7975
vn -0.4492 0.4161 0.7906
vn -0.4597 0.4152 0.7850
vn -0.0897 0.9838 0.1549
vn -0.0894 0.9837 0.1563
vn -0.7824 0.6198 0.0610
vn -1.0000 0.0002 0.0069
vn -0.9950 0.0996 0.0043
vn -0.3441 0.6168 0.7079
vn -0.4977 -0.0000 0.8673
vn -0.4976 0.0947 0.8622
vn 0.4402 0.6160 0.6533
vn 0.5060 -0.0001 0.8625
vn 0.5040 0.1039 0.8574
vn -0.0899 0.9832 -0.1590
vn -0.0899 0.9838 -0.1550
vn 0.7824 0.6198 -0.0610
vn 1.0000 -0.0000 -0.0069
vn 0.9950 0.0996 -0.0043
vn -0.4392 0.6150 -0.6549
vn -0.5060 -0.0001 -0.8625
vn -0.5025 0.1015 -0.8586
vn 0.3441 0.6168 -0.7079
vn 0.4977 -0.0000 -0.8673
vn 0.4976 0.0947 -0.8622
vn -0.9224 0.3861 -0.0081
vn -0.9091 0.4166 0.0067
vn -0.9094 0.4158 -0.0061
vn 0.6435 0.7633 -0.0572
vn 0.9224 0.3861 -0.0081
vn 0.9090 0.4168 -0.0069
vn 0.0025 1.0000 0.0014
vn 0.1338 0.9818 0.1347
vn 0.0086 0.9270 -0.3749
vn -0.1867 0.9824 -0.0032
vn -0.1812 0.9834 0.0011
vn 0.0903 0.9828 0.1614
vn 0.0872 0.9844 0.1528
vn 0.1844 0.9828 -0.0023
vn 0.5271 0.8098 0.2575
vn 0.4015 0.7855 -0.4709
vn -0.1633 0.7441 -0.6478
vn -0.4794 0.7441 0.4653
vn 0.1656 0.7404 0.6514
vn 0.4558 0.3857 -0.8021
vn -0.9221 0.3867 0.0114
vn 0.4910 0.0000 0.8712
vn 1.0000 0.0000 0.0058
vn 0.5050 0.0000 -0.8631
vn -0.4910 0.0000 -0.8712
vn -1.0000 0.0000 -0.0058
vn 0.4512 0.3867 0.8042
vn 0.9221 0.3867 0.0113
vn 0.0000 -1.0000 0.0000
vn -0.4668 0.3857 -0.7958
vn -0.4558 0.3857 0.8021
vn -0.5050 0.0000 0.8631
s 1
f 62//1 14//2 59//1
f 46//3 65//4 49//5
f 60//6 37//7 41//8
f 62//9 40//10 52//11
f 64//12 48//13 43//14
f 55//1 24//15 25//16
f 20//17 8//18 22//19
f 23//20 6//21 26//22
f 27//23 4//24 31//25
f 58//1 13//26 18//27
f 32//28 2//29 35//30
f 16//31 10//32 19//33
f 36//34 12//35 15//36
f 57//37 45//38 38//39
f 50//40 61//41 54//42
f 51//43 53//44 39//45
f 63//1 17//46 21//47
f 65//1 28//48 30//49
f 66//1 34//50 61//1
f 13//26 15//36 16//31
f 18//27 20//17 17//46
f 22//19 24//15 21//47
f 26//22 28//48 25//16
f 30//49 32//28 29//51
f 33//52 35//30 36//34
f 37//7 38//39 39//45
f 40//10 41//8 42//53
f 43//14 44//54 45//38
f 46//3 47//55 48//13
f 49//5 50//40 51//43
f 52//11 53//44 54//42
f 18//27 57//1 58//1
f 18//27 16//31 19//33
f 14//2 36//34 15//36
f 29//51 35//30 34//50
f 60//6 40//10 59//56
f 52//11 61//41 62//9
f 17//46 22//19 21//47
f 43//14 63//57 64//12
f 25//16 23//20 26//22
f 28//48 31//25 30//49
f 8//18 23//20 22//19
f 5//58 26//22 6//21
f 32//28 4//24 3//59
f 36//34 2//29 1//60
f 15//36 11//61 16//31
f 20//17 10//32 9//62
f 42//53 37//7 39//45
f 39//45 45//38 44//54
f 51//43 46//3 49//5
f 51//43 54//42 53//44
f 44//54 48//13 47//55
f 53//44 40//10 42//53
f 48//13 56//63 46//3
f 37//7 57//37 38//39
f 60//1 14//2 13//26
f 49//5 66//64 50//40
f 30//49 66//1 65//1
f 61//1 33//52 62//1
f 63//1 24//15 64//1
f 25//16 56//1 55//1
f 12//65 2//65 6//65
f 62//1 33//52 14//2
f 46//3 56//63 65//4
f 60//6 58//66 37//7
f 62//9 59//56 40//10
f 64//12 55//67 48//13
f 55//1 64//1 24//15
f 20//17 9//62 8//18
f 23//20 7//68 6//21
f 27//23 5//58 4//24
f 58//1 60//1 13//26
f 32//28 3//59 2//29
f 16//31 11//61 10//32
f 36//34 1//60 12//35
f 57//37 63//57 45//38
f 50//40 66//64 61//41
f 53//44 42//53 39//45
f 39//45 44//54 47//55
f 47//55 51//43 39//45
f 63//1 57//1 17//46
f 65//1 56//1 28//48
f 66//1 29//51 34//50
f 13//26 14//2 15//36
f 18//27 19//33 20//17
f 22//19 23//20 24//15
f 26//22 27//23 28//48
f 30//49 31//25 32//28
f 33//52 34//50 35//30
f 18//27 17//46 57//1
f 18//27 13//26 16//31
f 14//2 33//52 36//34
f 29//51 32//28 35//30
f 60//6 41//8 40//10
f 52//11 54//42 61//41
f 17//46 20//17 22//19
f 43//14 45//38 63//57
f 25//16 24//15 23//20
f 28//48 27//23 31//25
f 8//18 7//68 23//20
f 5//58 27//23 26//22
f 32//28 31//25 4//24
f 36//34 35//30 2//29
f 15//36 12//35 11//61
f 20//17 19//33 10//32
f 42//53 41//8 37//7
f 39//45 38//39 45//38
f 51//43 47//55 46//3
f 51//43 50//40 54//42
f 44//54 43//14 48//13
f 53//44 52//11 40//10
f 48//13 55//67 56//63
f 37//7 58//66 57//37
f 60//1 59//1 14//2
f 49//5 65//4 66//64
f 30//49 29//51 66//1
f 61//1 34//50 33//52
f 63//1 21//47 24//15
f 25//16 28//48 56//1
f 2//65 3//65 4//65
f 4//65 5//65 6//65
f 6//65 7//65 8//65
f 8//65 9//65 10//65
f 10//65 11//65 12//65
f 12//65 1//65 2//65
f 2//65 4//65 6//65
f 6//65 8//65 10//65
f 10//65 12//65 6//65
