v 0.483834 -0.128370 -0.283091
v 0.487081 -0.128370 -0.277466
v 0.487081 -0.128370 0.277466
v 0.483834 -0.128370 0.283091
v 0.003248 -0.128370 0.560558
v -0.003248 -0.128370 0.560558
v -0.483833 -0.128370 0.283091
v -0.487081 -0.128370 0.277466
v -0.487081 -0.128370 -0.277466
v -0.483833 -0.128370 -0.283091
v -0.003248 -0.128370 -0.560558
v 0.003248 -0.128370 -0.560558
v -0.003522 -0.091592 -0.556069
v 0.003522 -0.091592 -0.556069
v 0.003248 -0.095342 -0.560558
v -0.003248 -0.095342 -0.560558
v -0.483331 -0.091592 -0.274984
v -0.479809 -0.091592 -0.281085
v -0.483833 -0.095342 -0.283091
v -0.487081 -0.095342 -0.277466
v -0.483331 -0.091592 0.274984
v -0.487081 -0.095342 0.277466
v -0.483833 -0.095342 0.283091
v -0.479809 -0.091592 0.281085
v -0.003522 -0.091592 0.556069
v -0.003248 -0.095342 0.560558
v 0.003248 -0.095342 0.560558
v 0.003522 -0.091592 0.556069
v 0.483331 -0.091592 0.274984
v 0.479809 -0.091592 0.281085
v 0.483834 -0.095342 0.283091
v 0.487081 -0.095342 0.277466
v 0.479809 -0.091592 -0.281085
v 0.483331 -0.091592 -0.274984
v 0.487081 -0.095342 -0.277466
v 0.483834 -0.095342 -0.283091
v -0.426236 -0.003462 -0.250136
v -0.429742 -0.003462 -0.244063
v -0.424550 0.000000 -0.245114
v 0.003506 -0.003462 -0.494199
v -0.003506 -0.003462 -0.494199
v 0.000000 0.000000 -0.490228
v -0.426236 -0.003462 0.250136
v -0.424550 0.000000 0.245114
v -0.429742 -0.003462 0.244063
v 0.003506 -0.003462 0.494199
v 0.000000 0.000000 0.490228
v -0.003506 -0.003462 0.494199
v 0.426236 -0.003462 0.250136
v 0.429742 -0.003462 0.244063
v 0.424550 0.000000 0.245114
v 0.426236 -0.003462 -0.250136
v 0.424550 0.000000 -0.245114
v 0.429742 -0.003462 -0.244063
v -0.003513 -0.091592 0.536574
v 0.003513 -0.091592 0.536574
v -0.466444 -0.091592 -0.265245
v -0.462931 -0.091592 -0.271330
v 0.003513 -0.091592 -0.536574
v -0.003513 -0.091592 -0.536574
v 0.466444 -0.091592 -0.265245
v 0.462931 -0.091592 -0.271330
v -0.466444 -0.091592 0.265245
v -0.462931 -0.091592 0.271330
v 0.462931 -0.091592 0.271330
v 0.466444 -0.091592 0.265245
vn 0.0000 1.0000 -0.0000
vn 0.0898 0.9836 -0.1567
vn 0.4553 0.4007 0.7951
vn 0.4642 0.3852 0.7976
vn 0.4580 0.4452 0.7695
vn -0.4553 0.4007 -0.7951
vn -0.4642 0.3852 -0.7976
vn -0.4580 0.4452 -0.7695
vn 0.4642 0.3851 -0.7976
vn 0.4526 0.4012 -0.7964
vn 0.4580 0.4452 -0.7695
vn -0.4642 0.3851 0.7976
vn -0.4495 0.4158 0.7906
vn -0.4650 0.4179 0.7804
vn -0.0898 0.9836 0.1567
vn -0.0906 0.9841 0.1526
vn -0.9985 0.0538 -0.0058
vn -1.0000 0.0002 0.0058
vn -0.9833 0.1821 0.0057
vn -0.5022 0.1007 0.8589
vn -0.4975 -0.0000 0.8675
vn -0.4874 0.1023 0.8671
vn 0.4966 0.0541 0.8663
vn 0.5050 -0.0001 0.8631
vn 0.4966 0.1821 0.8487
vn -0.0902 0.9832 -0.1584
vn -0.0890 0.9844 -0.1520
vn 0.9985 0.0538 0.0058
vn 1.0000 0.0000 -0.0058
vn 0.9835 0.1810 -0.0052
vn -0.4966 0.0541 -0.8663
vn -0.5050 -0.0000 -0.8631
vn -0.4966 0.1821 -0.8487
vn 0.5024 0.1015 -0.8586
vn 0.4975 -0.0000 -0.8675
vn 0.4874 0.1023 -0.8671
vn -0.9226 0.3857 -0.0063
vn -0.9097 0.4154 0.0031
vn -0.9088 0.4171 -0.0065
vn 0.9226 0.3857 0.0063
vn 0.9097 0.4154 -0.0031
vn 0.9088 0.4171 0.0065
vn 0.0051 1.0000 0.0017
vn 0.0041 1.0000 -0.0024
vn -0.0030 1.0000 -0.0017
vn -0.1823 0.9832 -0.0011
vn -0.1781 0.9840 0.0011
vn 0.0902 0.9832 0.1584
vn 0.0890 0.9844 0.1520
vn 0.1022 0.9948 -0.0012
vn 0.2937 0.9559 0.0018
vn 0.0890 0.9844 -0.1520
vn 0.0000 0.9996 -0.0270
vn -0.0158 0.9998 0.0136
vn 0.0013 1.0000 0.0070
vn -0.4507 0.3869 -0.8045
vn 0.4561 0.3857 -0.8020
vn 0.9221 0.3868 -0.0120
vn -0.9221 0.3868 0.0119
vn 0.4900 0.0000 0.8717
vn 1.0000 0.0000 0.0058
vn 0.5050 0.0000 -0.8631
vn -0.4900 0.0000 -0.8717
vn -1.0000 0.0000 -0.0058
vn 0.4507 0.3869 0.8045
vn 0.0000 -1.0000 0.0000
vn -0.4561 0.3858 0.8020
vn -0.5050 0.0000 0.8631
s 1
f 62//1 14//2 59//1
f 46//3 65//4 49//5
f 41//6 58//7 37//8
f 62//9 40//10 52//11
f 64//12 48//13 43//14
f 25//15 64//1 24//16
f 20//17 8//18 22//19
f 23//20 6//21 26//22
f 27//23 4//24 31//25
f 58//1 13//26 18//27
f 32//28 2//29 35//30
f 16//31 10//32 19//33
f 36//34 12//35 15//36
f 57//37 45//38 38//39
f 66//40 54//41 50//42
f 51//43 53//44 39//45
f 63//1 17//46 21//47
f 65//1 28//48 30//49
f 66//1 34//50 61//1
f 13//26 15//36 16//31
f 17//46 19//33 20//17
f 22//19 24//16 21//47
f 26//22 28//48 25//15
f 29//51 31//25 32//28
f 34//50 36//34 33//52
f 37//8 38//39 39//45
f 40//10 41//6 42//53
f 43//14 44//54 45//38
f 46//3 47//55 48//13
f 49//5 50//42 51//43
f 52//11 53//44 54//41
f 18//27 57//1 58//1
f 13//26 19//33 18//27
f 14//2 36//34 15//36
f 29//51 35//30 34//50
f 60//56 40//10 59//57
f 52//11 61//58 62//9
f 17//46 22//19 21//47
f 43//14 63//59 64//12
f 25//15 23//20 26//22
f 28//48 31//25 30//49
f 8//18 23//20 22//19
f 5//60 26//22 6//21
f 32//28 4//24 3//61
f 36//34 2//29 1//62
f 15//36 11//63 16//31
f 20//17 10//32 9//64
f 42//53 37//8 39//45
f 39//45 45//38 44//54
f 47//55 49//5 51//43
f 51//43 54//41 53//44
f 44//54 48//13 47//55
f 42//53 52//11 40//10
f 48//13 56//65 46//3
f 37//8 57//37 38//39
f 60//1 14//2 13//26
f 49//5 66//40 50//42
f 30//49 66//1 65//1
f 61//1 33//52 62//1
f 63//1 24//16 64//1
f 25//15 56//1 55//1
f 12//66 2//66 6//66
f 62//1 33//52 14//2
f 46//3 56//65 65//4
f 41//6 60//56 58//7
f 62//9 59//57 40//10
f 64//12 55//67 48//13
f 25//15 55//1 64//1
f 20//17 9//64 8//18
f 23//20 7//68 6//21
f 27//23 5//60 4//24
f 58//1 60//1 13//26
f 32//28 3//61 2//29
f 16//31 11//63 10//32
f 36//34 1//62 12//35
f 57//37 63//59 45//38
f 66//40 61//58 54//41
f 53//44 42//53 39//45
f 39//45 44//54 47//55
f 47//55 51//43 39//45
f 63//1 57//1 17//46
f 65//1 56//1 28//48
f 66//1 29//51 34//50
f 13//26 14//2 15//36
f 17//46 18//27 19//33
f 22//19 23//20 24//16
f 26//22 27//23 28//48
f 29//51 30//49 31//25
f 34//50 35//30 36//34
f 18//27 17//46 57//1
f 13//26 16//31 19//33
f 14//2 33//52 36//34
f 29//51 32//28 35//30
f 60//56 41//6 40//10
f 52//11 54//41 61//58
f 17//46 20//17 22//19
f 43//14 45//38 63//59
f 25//15 24//16 23//20
f 28//48 27//23 31//25
f 8//18 7//68 23//20
f 5//60 27//23 26//22
f 32//28 31//25 4//24
f 36//34 35//30 2//29
f 15//36 12//35 11//63
f 20//17 19//33 10//32
f 42//53 41//6 37//8
f 39//45 38//39 45//38
f 47//55 46//3 49//5
f 51//43 50//42 54//41
f 44//54 43//14 48//13
f 42//53 53//44 52//11
f 48//13 55//67 56//65
f 37//8 58//7 57//37
f 60//1 59//1 14//2
f 49//5 65//4 66//40
f 30//49 29//51 66//1
f 61//1 34//50 33//52
f 63//1 21//47 24//16
f 25//15 28//48 56//1
f 2//66 3//66 4//66
f 4//66 5//66 6//66
f 6//66 7//66 8//66
f 8//66 9//66 10//66
f 10//66 11//66 12//66
f 12//66 1//66 2//66
f 2//66 4//66 6//66
f 6//66 8//66 10//66
f 10//66 12//66 6//66
